<?xml version="1.0" standalone="no"?>
<!DOCTYPE svg PUBLIC "-//W3C//DTD SVG 20010904//EN"
 "http://www.w3.org/TR/2001/REC-SVG-20010904/DTD/svg10.dtd">
<svg version="1.0" xmlns="http://www.w3.org/2000/svg"
 width="108.000000pt" height="80.000000pt" viewBox="0 0 108.000000 80.000000"
 preserveAspectRatio="xMidYMid meet">

<g transform="translate(0.000000,80.000000) scale(0.100000,-0.100000)"
fill="#000000" stroke="none">
<path d="M483 762 c-2 -11 -22 -26 -43 -36 -69 -30 -130 -118 -130 -188 0 -9
-4 -20 -10 -23 -17 -11 -11 -23 13 -27 20 -3 23 -10 28 -69 3 -39 14 -80 25
-100 15 -24 18 -42 13 -62 -4 -15 -4 -27 -1 -27 4 -1 -28 -14 -72 -30 -43 -16
-94 -41 -112 -55 -31 -23 -34 -31 -34 -76 l0 -49 378 2 377 3 3 37 c2 20 -2
46 -8 58 -12 22 -101 71 -167 90 -35 11 -42 17 -46 44 -3 19 3 45 17 71 12 23
22 65 24 102 4 59 6 63 28 63 23 0 32 14 16 24 -5 3 -14 29 -21 59 -14 65 -62
125 -119 151 -22 10 -42 27 -45 37 -7 28 -107 28 -114 1z m97 -52 c0 -22 5
-40 10 -40 6 0 10 9 10 21 0 12 5 19 13 16 8 -3 11 -21 8 -56 -3 -48 -1 -52
15 -48 68 19 80 18 92 -8 7 -14 12 -37 12 -50 l0 -25 -200 0 -200 0 0 24 c0
14 5 37 10 51 10 27 23 28 94 8 18 -5 19 -1 12 51 -5 46 -4 56 9 56 8 0 15 -9
15 -20 0 -11 5 -20 10 -20 6 0 10 18 10 40 l0 40 40 0 40 0 0 -40z m-150 -56
c0 -8 -10 -14 -25 -14 -29 0 -33 15 -8 29 21 11 33 6 33 -15z m255 6 c18 -20
17 -20 -8 -20 -20 0 -27 5 -27 20 0 11 4 20 8 20 5 0 17 -9 27 -20z m35 -203
c0 -93 -55 -187 -128 -219 -38 -17 -51 -19 -83 -9 -82 25 -137 101 -146 203
l-6 58 182 0 181 0 0 -33z m-259 -236 l56 -28 -17 -32 -16 -33 -42 56 c-37 49
-48 66 -39 66 1 0 27 -13 58 -29z m213 17 c-17 -28 -76 -108 -80 -108 -5 0
-36 61 -32 63 2 1 26 14 53 29 56 30 70 34 59 16z m-240 -88 c20 -28 36 -61
36 -75 l0 -25 -140 0 -140 0 0 34 c0 32 4 36 58 62 50 24 124 51 144 53 3 1
22 -22 42 -49z m361 13 c75 -31 95 -49 95 -85 l0 -28 -140 0 -140 0 0 26 c0
15 16 48 36 75 40 55 42 56 149 12z m-238 -23 c11 -29 10 -30 -17 -30 -28 0
-29 1 -19 30 6 17 14 30 18 30 4 0 12 -13 18 -30z m23 -75 c0 -11 -12 -15 -45
-15 -35 0 -43 3 -39 15 4 10 20 15 45 15 28 0 39 -4 39 -15z"/>
</g>
</svg>
